<?xml version="1.0" encoding="UTF-8"?>
<svg id="Layer_1" data-name="Layer 1" xmlns="http://www.w3.org/2000/svg" viewBox="0 0 13.96 14">
  <defs>
    <style>
      .cls-1 {
        fill: none;
      }

      .cls-2 {
        fill: #1d489e;
      }

      .cls-3 {
        fill: #37b14d;
      }
    </style>
  </defs>
  <g>
    <path class="cls-2" d="M11.06,12.43c.14-.33.26-.62.39-.92.37-.87.74-1.74,1.11-2.62.03-.08.07-.11.16-.11.21,0,.41,0,.62,0,.1,0,.13.04.13.12.03.33.06.65.09.98.05.49.1.97.15,1.46.05.47.09.94.14,1.41.03.35.07.69.11,1.04.02.14.02.14-.12.14-.23,0-.46,0-.68,0-.09,0-.12-.01-.13-.12-.08-.89-.17-1.77-.26-2.66-.03-.34-.06-.68-.09-1.02,0-.03,0-.07-.04-.09-.09.22-.18.43-.28.65-.44,1.04-.89,2.08-1.33,3.12-.03.07-.06.12-.16.12-.1,0-.17,0-.22-.12-.53-1.22-1.08-2.43-1.62-3.65-.02-.04-.03-.09-.08-.13-.01.11-.02.21-.03.31-.05.68-.11,1.37-.16,2.06-.04.46-.08.93-.11,1.4,0,.09-.04.14-.14.13-.11-.01-.21,0-.32,0-.06,0-.08-.02-.08-.09.04-.43.08-.86.12-1.28.04-.44.08-.88.12-1.32.05-.54.1-1.08.15-1.61.02-.26.05-.51.07-.77,0-.06.02-.09.09-.09.24,0,.48,0,.72,0,.08,0,.09.05.12.11.5,1.12,1,2.24,1.5,3.36.02.05.04.1.08.18h0Z"/>
    <path class="cls-2" d="M2.2,11.2c.06.02.12.04.18.06.48.18.76.52.83,1.03.03.24.03.48-.03.71-.13.52-.5.79-1,.92-.38.09-.76.07-1.14.06-.32,0-.63-.02-.95-.06-.07,0-.09-.03-.09-.09v-4.84q0-.15.15-.16c.44-.03.89-.06,1.33-.04.28,0,.56.05.83.16.45.18.69.53.7,1.01,0,.19-.02.38-.09.56-.11.28-.3.48-.59.6-.05.02-.09.04-.14.06v.02ZM.93,12.47c0,.3,0,.6,0,.89,0,.08.02.11.1.11.24,0,.48,0,.73-.04.26-.04.4-.19.47-.43.07-.26.09-.52.04-.78-.07-.38-.29-.62-.68-.71-.17-.04-.35-.04-.53-.04-.1,0-.13.02-.13.13,0,.29,0,.58,0,.87h0ZM.93,10.13c0,.25,0,.5,0,.75,0,.07.02.1.09.1.16,0,.32,0,.48-.02.34-.05.48-.17.54-.47.03-.18.04-.35.02-.53-.03-.28-.15-.49-.43-.59-.2-.07-.41-.08-.62-.07-.07,0-.08.04-.08.1,0,.25,0,.49,0,.74h0Z"/>
    <path class="cls-2" d="M4.02,11.38v-2.41c0-.15,0-.15.15-.16.39-.02.78-.04,1.17-.04.25,0,.49.02.73.09.62.16.95.57.97,1.21,0,.22,0,.45-.07.67-.12.39-.35.68-.71.87-.07.04-.09.07-.05.15.23.42.43.85.7,1.24.11.16.24.31.39.44.11.09.22.15.37.16.07,0,.1.04.09.11-.01.25.05.21-.2.26-.25.05-.5.05-.75,0-.25-.04-.43-.19-.59-.38-.24-.3-.41-.64-.58-.98-.11-.22-.22-.45-.32-.68-.04-.08-.08-.11-.17-.11-.21,0-.21,0-.21.22,0,.6,0,1.19,0,1.79,0,.09-.03.12-.12.12-.22,0-.45,0-.67,0-.11,0-.14-.03-.14-.13,0-.81,0-1.62,0-2.43h0ZM4.95,10.32c0,.31,0,.61,0,.92,0,.07.02.1.09.09.11,0,.23,0,.34-.02.33-.06.58-.21.66-.56.06-.24.07-.49.04-.73-.04-.41-.23-.62-.58-.69-.14-.03-.29-.03-.44-.03-.08,0-.12.03-.12.13,0,.3,0,.6,0,.9h0Z"/>
  </g>
  <g>
    <path class="cls-1" d="M11.21,1.78c-1.23.25-2.26.85-3.03,1.86-.62.82-.95,1.77-1.12,2.77-.03.17-.08.33-.05.55,1.09-2.33,2.71-4.1,4.98-5.25-.27-.04-.53.01-.78.07Z"/>
    <path class="cls-1" d="M5.2,2.94c-.71-.56-1.53-.87-2.44-.94h0c1.66.9,2.97,2.15,3.91,3.78-.07-.99-.55-2.11-1.47-2.84Z"/>
    <path class="cls-3" d="M10.69,7.17c.63-.2,1.22-.5,1.71-.94,1.04-.94,1.42-2.17,1.53-3.52.04-.46.03-.93,0-1.39-.03-.4-.07-.8-.14-1.19-.01-.09-.05-.13-.14-.13-.53.01-1.06-.03-1.59.03-.7.08-1.39.18-2.06.38-1.11.33-1.94,1-2.42,2.07-.25.56-.4,1.15-.51,1.75-.01.06,0,.17-.07.17-.09,0-.18-.05-.22-.16-.01-.03-.02-.07-.02-.1-.05-.36-.13-.71-.24-1.06-.33-1.03-.97-1.78-2.03-2.11-1.02-.32-2.08-.41-3.14-.42-.1,0-.12.06-.13.14-.01.15-.02.3-.03.45-.03.27-.03.55-.03.82,0,.05.15,1.37.16,1.42.01.06.03.11.04.17.29,1.06.87,1.89,1.88,2.37.5.24,1.03.36,1.59.41.62.05,1.23,0,1.84-.1.13-.02.17-.08.15-.21-.03-.16-.03-.33-.03-.49,0-.03-.01-.09.04-.1.05,0,.1.02.11.07.01.03.01.08.01.11-.03.52-.04,1.04-.12,1.56-.01.09,0,.12.09.13.31.06.63.1.95.12.55.03,1.09.04,1.63-.03.19-.02,1.04-.2,1.18-.24ZM2.76,1.99h0c.91.07,1.72.38,2.44.94.92.73,1.4,1.85,1.47,2.84-.94-1.63-2.26-2.88-3.91-3.78ZM7.01,6.97c-.03-.22.02-.38.05-.55.17-1,.5-1.95,1.12-2.77.77-1.01,1.79-1.61,3.03-1.86.25-.05.51-.1.78-.07-2.28,1.15-3.89,2.93-4.98,5.25Z"/>
  </g>
</svg>